<svg xmlns="http://www.w3.org/2000/svg" xml:space="preserve" width="764.71033" height="400" viewBox="0 0 764.71033 399.99999"><path d="M227.855 553.158h34.233v34.228h-34.233v-34.228M280.63 584.526v-28.522H637.21v28.522H280.63M66.678 584.526h142.626v-28.522H66.678v28.522M66.678 527.478h142.626v-28.526H66.678v28.526M66.678 470.412h142.626V441.9H66.678v28.512M227.855 496.097h34.233v34.232h-34.233v-34.232M280.63 527.478v-28.526H637.21v28.526H280.63" style="fill:#b77a2e;fill-opacity:1;fill-rule:nonzero;stroke:none;stroke-width:.465051" transform="matrix(1.33333 0 0 -1.33333 -88.904 783.181)"/><path d="M66.678 527.478h142.626v-28.526H66.678v28.526M227.855 439.035h34.233v34.246h-34.233v-34.246M280.63 470.421V441.9H637.21v28.521H280.63M66.678 470.421h142.626V441.9H66.678v28.521" style="fill:#b77a2e;fill-opacity:1;fill-rule:nonzero;stroke:none;stroke-width:.465051" transform="matrix(1.33333 0 0 -1.33333 -88.904 783.181)"/><path d="M271.175 379.569v10.045a2.344 2.344 0 0 1-2.386 2.409h-40.934v-4.93h35.08V379.3c0-4.385-.415-7.338-1.126-8.794h-36.47v-4.953h20.025v-8.859h-17.509v-4.92h35.08v-18.207h8.24v20.741a2.32 2.32 0 0 1-2.386 2.386h-15.184v8.86h20.049v4.952h-4.051c1.372 1.935 1.572 6.739 1.572 9.064M324.302 350.024H299.38v6.613h-8.255v-17.783c0-3.395 1.893-5.274 5.32-5.274h33.735a2.284 2.284 0 0 1 2.377 2.381v20.676h-8.255v-6.613zm0-11.538H299.38v6.632h24.922v-6.632M324.302 391.972v-24.239s-8.78-1.134-16.89-1.134H296.24v8.082h20.871v14.891c.052 1.335-1.032 2.404-2.385 2.4h-26.56v-4.78h20.9v-7.735h-19.685c-.68.028-1.214-.511-1.214-1.19v-11.24c0-3.41 1.911-5.274 5.33-5.274h10.895c10.994 0 17.36 1.144 19.91 1.767v-3.2h8.254v31.652h-8.255M611.238 379.062c0-6.339-1.516-10.217-1.516-10.217h7.72s1.874 3.613 1.874 10.147v10.58a2.368 2.368 0 0 1-2.4 2.4h-26.73v-4.897h21.052v-8.013M601.937 354.763h-8.259v-15.91c0-3.394 1.902-5.273 5.33-5.273h36.11v4.906h-33.18v16.277" style="fill:#485158;fill-opacity:1;fill-rule:nonzero;stroke:none;stroke-width:.465051" transform="matrix(1.33333 0 0 -1.33333 -88.904 783.181)"/><path d="M634.588 381.476v10.496h-8.268V365.78s-8.236-1.097-16.36-1.097h-6.646v13.877h-7.864v-13.877h-6.683v-4.888h17.62c10.976 0 17.389 1.158 19.933 1.8V349.67h8.268v26.591h5.623v5.214h-5.623M493.562 361.744a2.34 2.34 0 0 1 2.4 2.385v27.833h-8.06v-10.259h-12.286v10.26h-8.069v-24.97c0-3.399 1.879-5.25 5.306-5.25zm-17.946 15.17h12.286v-10.255h-12.286v10.254M509.01 356.628H470.5v-4.776h32.642V333.58h8.273v20.667c.028 1.335-1.042 2.404-2.404 2.381M511.415 381.462v10.5h-8.273v-30.218h8.273v14.51h5.641v5.208h-5.64M535.454 372.458H572.3c.67-.018 1.209.521 1.18 1.195v15.928c.029 1.326-1.04 2.395-2.408 2.39h-39.739a1.171 1.171 0 0 1-1.18-1.218v-13.016c0-3.41 1.892-5.279 5.3-5.279zm2.748 14.654h27.243v-9.817h-27.243v9.817M575.964 363.246v4.84h-48.286v-4.84h20.034v-5.362h-17.56v-4.865h35.293v-4.822h-35.293v-9.343c0-3.395 1.893-5.274 5.302-5.274h38.027v4.906h-35.279v4.86h35.279v12.147c.028 1.326-1.042 2.41-2.41 2.39h-15.113v5.363h20.006M396.325 361.567v4.925h-48.31v-4.925h20.025v-3.818c-8.38-1.368-16.128-6.506-16.128-12.598 0-7.18 9.245-12.994 20.235-12.994 11.017 0 20.266 5.813 20.266 12.994 0 6.092-7.738 11.23-16.118 12.598v3.818zM383.8 345.155c0-4.488-5.702-8.129-11.654-8.129-5.925 0-11.627 3.641-11.627 8.13 0 4.51 5.702 8.128 11.627 8.128 5.952 0 11.654-3.618 11.654-8.129M372.295 378.518c4.753-5.12 13.487-8.534 22.588-8.762v5.232c-8.33.326-16.514 5.306-18.16 11.612h17.104v4.767h-43.315V386.6h17.375c-1.688-6.357-9.98-11.398-18.426-11.635v-5.209c9.218.158 18.063 3.6 22.834 8.762M431.668 359.023c-10.942 0-19.83-6.022-19.83-13.45 0-7.421 8.888-13.416 19.83-13.416 10.948 0 19.807 5.995 19.807 13.417 0 7.427-8.86 13.449-19.807 13.449zm-.005-21.988c-5.734 0-11.221 3.818-11.221 8.571 0 4.744 5.487 8.566 11.221 8.566 5.72 0 11.222-3.822 11.222-8.566 0-4.753-5.502-8.57-11.222-8.57M438.663 377.662c0 8.432-7.395 15.245-16.505 15.245-9.129 0-16.505-6.813-16.505-15.245 0-8.408 7.376-15.244 16.505-15.244 9.11 0 16.505 6.836 16.505 15.244zm-24.722 0c0 5.734 4.101 10.394 8.222 10.394 4.083 0 8.208-4.66 8.208-10.394 0-5.739-4.125-10.389-8.208-10.389-4.12 0-8.222 4.65-8.222 10.39M451.67 381.504v10.519h-8.273V361.72h8.273v14.547h5.65v5.237h-5.65M262.73 295.855h-7.316l3.576 12.198h.07zm-12.701-7.999h2.948l1.707 5.46h8.836l1.651-5.46h3.265l-7.446 22.895h-3.71l-7.251-22.895M282.034 310.75v-2.534h-6.023v-20.36h-2.916v20.36h-6.017v2.535h14.956M288.126 287.856h-2.907v22.895h2.907v-22.895M300.036 289.833c-2.767 0-4.223 1.255-4.223 6.273v7.725c0 4.794 3.302 4.957 4.223 4.957.911 0 4.213-.163 4.213-4.957v-7.725c0-5.018-1.46-6.273-4.213-6.273zm0-2.446c4.841 0 7.194 2.506 7.194 8.85v7.505c0 4.563-2.353 7.478-7.194 7.478-4.85 0-7.2-2.915-7.2-7.478v-7.505c0-6.344 2.35-8.85 7.2-8.85M327.623 310.75v-22.894h-3.995l-9.027 19.849h-.065v-19.849h-2.6v22.895h4.116l8.91-19.593h.06v19.593h2.6M343.155 295.855h-7.31l3.567 12.198h.065zm-12.71-7.999h2.944l1.716 5.46h8.846l1.655-5.46h3.25l-7.445 22.895h-3.701l-7.265-22.895M351.689 287.856v22.895h2.925v-20.356H363v-2.539h-11.31M403.686 310.75h2.907v-14.644c0-5.018 1.52-6.273 4.269-6.273 2.758 0 4.283 1.255 4.283 6.273v14.645h2.925v-14.514c0-6.344-2.348-8.85-7.208-8.85-4.846 0-7.176 2.506-7.176 8.85v14.514M425.102 294.679v-.665c0-3.102 1.972-4.088 3.841-4.088 2.307 0 4.079.986 4.079 3.697 0 5.074-10.26 4.506-10.26 11.384 0 4.056 2.87 6.213 6.707 6.213 4.185 0 6.529-2.023 6.343-6.682h-3.041c.032 2.506-.768 4.148-3.516 4.148-1.744 0-3.516-.879-3.516-3.367 0-5.037 10.259-4.306 10.259-11.566 0-4.808-3.32-6.366-7.092-6.366-6.748-.066-6.748 5.106-6.692 7.292h2.888M440.137 287.856v22.895h11.798v-2.535h-8.887v-7.362h8.25v-2.53h-8.25v-7.929h9.069v-2.539h-11.98M455.995 310.75h2.916v-14.644c0-5.018 1.511-6.273 4.278-6.273 2.758 0 4.284 1.255 4.284 6.273v14.645h2.906v-14.514c0-6.344-2.34-8.85-7.19-8.85-4.855 0-7.194 2.506-7.194 8.85v14.514M477.801 287.856h-2.706v22.895h4.725l5.757-19.22h.065l5.827 19.22h4.827v-22.895h-2.925v20.36h-.065l-6.404-20.36h-2.753l-6.283 20.36h-.065v-20.36M514.647 289.833c-2.757 0-4.208 1.255-4.208 6.273v7.725c0 4.794 3.288 4.957 4.208 4.957.921 0 4.218-.163 4.218-4.957v-7.725c0-5.018-1.465-6.273-4.218-6.273zm0-2.446c4.855 0 7.19 2.506 7.19 8.85v7.505c0 4.563-2.335 7.478-7.19 7.478s-7.208-2.915-7.208-7.478v-7.505c0-6.344 2.353-8.85 7.208-8.85M526.539 287.856v22.895h11.356v-2.535h-8.431v-7.362h7.985v-2.53h-7.985v-10.468h-2.925M631.505 295.855H624.2l3.572 12.198h.056zm-12.7-7.999h2.939l1.711 5.46h8.84l1.67-5.46h3.246l-7.445 22.895h-3.707l-7.254-22.895M575.355 289.833c-2.753 0-4.209 1.255-4.209 6.273v7.725c0 4.794 3.288 4.957 4.209 4.957.911 0 4.213-.163 4.213-4.957v-7.725c0-5.018-1.474-6.273-4.213-6.273zm0-2.446c4.846 0 7.185 2.506 7.185 8.85v7.505c0 4.563-2.34 7.478-7.185 7.478-4.85 0-7.185-2.915-7.185-7.478v-7.505c0-6.344 2.335-8.85 7.185-8.85M590.18 308.216h4.4c2.256 0 3.083-1.841 3.083-3.497 0-2.004-1.018-3.795-3.115-3.795h-4.367zm3.405-9.831c.995 0 3.25-.116 3.47-2.907.246-3.041.06-6.027.878-7.622h3.046c-.446 1.433-.762 5.009-.786 6-.158 4.585-1.106 5.482-3.739 5.896v.07c2.688.46 4.186 2.525 4.186 5.218 0 2.855-1.451 5.71-5.497 5.71h-7.892v-22.894h2.93v10.529h3.404M604.82 287.856v22.895h11.78v-2.535h-8.864v-7.362h8.241v-2.53h-8.24v-7.929h9.045v-2.539H604.82M243.755 291.619l-10.803 23.699h-5.097v-27.462h3.27v23.7l10.798-23.7h5.102v27.462h-3.27v-23.7M393.33 315.318l-7.05-22.29-7.05 22.29h-5.637v-27.462h3.274v24.601l7.78-24.6h3.27l7.784 24.6v-24.6h3.274v27.46h-5.645M567.36 287.856l-11.314 14.756 11.296 12.706h-4.195l-10.83-12.213v12.213h-3.27v-27.462h3.27v14.263l10.9-14.263h4.144" style="fill:#485158;fill-opacity:1;fill-rule:nonzero;stroke:none;stroke-width:.465051" transform="matrix(1.33333 0 0 -1.33333 -88.904 783.181)"/></svg>