<svg xmlns="http://www.w3.org/2000/svg" width="201.64099mm" height="178.409mm" viewBox="0 0 201.64099 178.409"><g style="fill:#4f4c4d;fill-opacity:1"><path d="m0 0-4.533 9.789V0h-1.999v12.014h2.964L.966 2.188v9.826h1.999V0Z" style="fill:#4f4c4d;fill-opacity:1;fill-rule:nonzero;stroke:none" transform="matrix(.76288 0 0 -.76288 25.87 158.716)"/></g><g style="fill:#4f4c4d;fill-opacity:1"><path d="M0 0c.504 0 1.006.122 1.497.37.496.247.853.531 1.071.855v1.463H.827c-.988 0-1.677-.127-2.068-.378-.379-.289-.569-.633-.569-1.037 0-.366.161-.671.482-.911C-1.006.12-.563 0 0 0m.533 4.223h2.035c0 .561-.218.984-.655 1.264-.438.284-1.069.424-1.895.424h-.053c-.779 0-1.609-.183-2.482-.55l-.5 1.534c.909.389 1.908.589 2.999.6h.036c1.446 0 2.558-.276 3.334-.835.777-.556 1.163-1.443 1.163-2.663v-5.342H2.654v.948a3.74 3.74 0 0 0-1.353-.854 4.653 4.653 0 0 0-1.63-.3c-1.034 0-1.869.272-2.505.82-.639.543-.958 1.214-.958 2.004 0 .888.396 1.615 1.188 2.189.738.508 1.784.761 3.137.761" style="fill:#4f4c4d;fill-opacity:1;fill-rule:nonzero;stroke:none" transform="matrix(.76288 0 0 -.76288 32.337 157.69)"/></g><g style="fill:#4f4c4d;fill-opacity:1"><path d="M0 0v-2.774h1.877v-1.589H0v-4.394c0-.413.1-.697.302-.851.202-.158.485-.234.853-.234h.722v-1.568H.689c-.93 0-1.609.205-2.033.621-.426.412-.64 1.027-.64 1.845v4.581h-1.481v1.589h1.481V0Z" style="fill:#4f4c4d;fill-opacity:1;fill-rule:nonzero;stroke:none" transform="matrix(.76288 0 0 -.76288 39.435 150.012)"/></g><path d="M-1.593 335.255h1.5v6.588h-1.5Zm1.695-2.053a.888.888 0 0 1-.282.652.925.925 0 0 1-.676.284.925.925 0 0 1-.679-.284.884.884 0 0 1-.282-.652.92.92 0 0 1 .282-.675.924.924 0 0 1 .679-.283c.26 0 .487.094.676.283a.924.924 0 0 1 .282.675" style="fill:#4f4c4d;fill-opacity:1;fill-rule:nonzero;stroke:none;stroke-width:.762889" transform="matrix(.99999 0 0 .99999 43.748 -183.123)"/><g style="fill:#4f4c4d;fill-opacity:1"><path d="M0 0c.711 0 1.325.272 1.836.817.512.546.766 1.24.766 2.079 0 .825-.254 1.517-.766 2.076-.511.555-1.125.837-1.836.837-.701 0-1.309-.282-1.818-.837-.511-.559-.766-1.251-.766-2.076 0-.839.255-1.533.766-2.079C-1.309.272-.701 0 0 0m0-1.62c-1.266 0-2.342.432-3.232 1.301-.891.867-1.335 1.939-1.335 3.215 0 1.274.444 2.349 1.335 3.221.89.875 1.966 1.309 3.232 1.309 1.275 0 2.357-.434 3.24-1.309.885-.872 1.325-1.947 1.325-3.221 0-1.276-.44-2.348-1.325-3.215C2.357-1.188 1.275-1.62 0-1.62" style="fill:#4f4c4d;fill-opacity:1;fill-rule:nonzero;stroke:none" transform="matrix(.76288 0 0 -.76288 48.502 157.638)"/></g><g style="fill:#4f4c4d;fill-opacity:1"><path d="M0 0v-4.345h-1.947v8.636H-.07V3.135c.228.401.562.731 1.001.982.433.253.907.378 1.411.378 1.023 0 1.84-.345 2.458-1.042.614-.695.922-1.623.922-2.783v-5.015H3.756V.172c0 .918-.151 1.598-.45 2.041-.297.439-.757.665-1.375.665-.325 0-.639-.107-.94-.32a2.032 2.032 0 0 1-.702-.872C.095 1.262 0 .697 0 0" style="fill:#4f4c4d;fill-opacity:1;fill-rule:nonzero;stroke:none" transform="matrix(.76288 0 0 -.76288 54.76 155.402)"/></g><g style="fill:#4f4c4d;fill-opacity:1"><path d="M0 0c.506 0 1.006.122 1.499.37.494.247.852.531 1.067.855v1.463H.826c-.988 0-1.677-.127-2.069-.378-.377-.289-.568-.633-.568-1.037 0-.366.162-.671.482-.911C-1.006.12-.562 0 0 0m.535 4.223h2.031c0 .561-.215.984-.653 1.264-.435.284-1.07.424-1.896.424h-.052c-.781 0-1.609-.183-2.481-.55l-.502 1.534c.909.389 1.908.589 3 .6h.035c1.45 0 2.558-.276 3.337-.835.773-.556 1.16-1.443 1.16-2.663v-5.342H2.652v.948a3.728 3.728 0 0 0-1.35-.854 4.677 4.677 0 0 0-1.632-.3c-1.032 0-1.87.272-2.504.82-.638.543-.958 1.214-.958 2.004 0 .888.398 1.615 1.188 2.189.738.508 1.783.761 3.139.761" style="fill:#4f4c4d;fill-opacity:1;fill-rule:nonzero;stroke:none" transform="matrix(.76288 0 0 -.76288 63.289 157.69)"/></g><path d="M24.719 332.073h1.485v9.77H24.72z" style="fill:#4f4c4d;fill-opacity:1;fill-rule:nonzero;stroke:none;stroke-width:.762889" transform="matrix(.99999 0 0 .99999 43.748 -183.123)"/><g style="fill:#4f4c4d;fill-opacity:1"><path d="M0 0v-12.014h-1.93v9.667l-3.139-9.667h-1.862l-3.135 9.667v-9.667h-1.931V0h2.964L-6-9.36-2.965 0Z" style="fill:#4f4c4d;fill-opacity:1;fill-rule:nonzero;stroke:none" transform="matrix(.76288 0 0 -.76288 84.858 149.551)"/></g><g style="fill:#4f4c4d;fill-opacity:1"><path d="M0 0v4.345h1.967v-8.636H.088v1.138a2.458 2.458 0 0 0-.965-.967 3.083 3.083 0 0 0-1.466-.377c-1.012 0-1.824.343-2.437 1.034-.618.69-.923 1.62-.923 2.791v5.017h1.948V-.19c0-.908.151-1.581.454-2.025.307-.44.767-.662 1.389-.662.31 0 .62.106.932.317.309.211.543.497.706.855C-.093-1.282 0-.712 0 0" style="fill:#4f4c4d;fill-opacity:1;fill-rule:nonzero;stroke:none" transform="matrix(.76288 0 0 -.76288 90.995 155.443)"/></g><g style="fill:#4f4c4d;fill-opacity:1"><path d="m0 0 1.226 1.257c.342-.47.721-.84 1.136-1.102a2.47 2.47 0 0 1 1.292-.363c.438 0 .808.091 1.111.268.306.179.457.415.457.714s-.145.531-.44.7a7.295 7.295 0 0 1-1.044.473c-.469.15-.954.316-1.445.5-.668.241-1.153.551-1.468.929-.306.382-.464.81-.464 1.294 0 .712.334 1.32 1.001 1.817.666.501 1.451.749 2.361.749.965 0 1.752-.227 2.363-.686.31-.242.556-.541.739-.898L5.619 4.48c-.163.276-.351.5-.567.671-.381.334-.857.501-1.432.501-.334 0-.624-.083-.871-.252-.246-.165-.371-.361-.371-.59 0-.255.14-.468.414-.641.276-.17.686-.338 1.225-.498.196-.06.42-.128.671-.208.838-.273 1.474-.63 1.905-1.069.431-.434.646-.959.646-1.567 0-.714-.344-1.33-1.034-1.852-.69-.525-1.568-.785-2.638-.785-.895 0-1.689.206-2.377.621C.729-.914.334-.518 0 0" style="fill:#4f4c4d;fill-opacity:1;fill-rule:nonzero;stroke:none" transform="matrix(.76288 0 0 -.76288 93.622 157.493)"/></g><g style="fill:#4f4c4d;fill-opacity:1"><path d="M0 0h4.791c-.022.562-.257 1.075-.706 1.543-.447.463-1.018.698-1.707.698-.711 0-1.3-.254-1.757-.758C.287 1.102.082.608 0 0m.035-1.549c.112-.533.36-.961.742-1.296.548-.505 1.279-.758 2.189-.758.952 0 1.843.351 2.672 1.053L6.221-4c-.931-.805-2.034-1.204-3.308-1.204-1.46 0-2.645.411-3.56 1.239-.914.83-1.37 1.912-1.37 3.258 0 1.321.406 2.411 1.215 3.268.812.855 1.871 1.281 3.18 1.281 1.289 0 2.343-.421 3.164-1.274.82-.849 1.232-1.9 1.232-3.155 0-.345-.029-.664-.087-.962z" style="fill:#4f4c4d;fill-opacity:1;fill-rule:nonzero;stroke:none" transform="matrix(.76288 0 0 -.76288 101.404 154.904)"/></g><g style="fill:#4f4c4d;fill-opacity:1"><path d="M0 0v4.345h1.965v-8.636H.086v1.138A2.429 2.429 0 0 0-.88-4.12a3.073 3.073 0 0 0-1.465-.377c-1.01 0-1.823.343-2.437 1.034-.614.69-.921 1.62-.921 2.791v5.017h1.947V-.19c0-.908.153-1.581.454-2.025.305-.44.769-.662 1.39-.662.309 0 .618.106.931.317.31.211.543.497.705.855C-.093-1.282 0-.712 0 0" style="fill:#4f4c4d;fill-opacity:1;fill-rule:nonzero;stroke:none" transform="matrix(.76288 0 0 -.76288 112.196 155.443)"/></g><g style="fill:#4f4c4d;fill-opacity:1"><path d="M0 0c1.01 0 1.797-.345 2.361-1.042.563-.695.845-1.623.845-2.783V-8.84H1.275v4.517c0 .918-.125 1.597-.371 2.041-.245.439-.651.665-1.213.665-.335 0-.625-.097-.873-.285-.245-.192-.445-.467-.593-.838-.161-.375-.242-.907-.242-1.583V-8.84h-1.93v4.517c0 .918-.128 1.597-.377 2.041-.254.439-.658.665-1.208.665-.334 0-.617-.097-.853-.285-.236-.192-.434-.467-.597-.838-.169-.423-.255-.988-.255-1.689v.019-4.43h-1.932v8.636h1.828V-1.36C-6.86-.45-6.113 0-5.104 0c1.082 0 1.876-.521 2.38-1.566.301.516.658.906 1.08 1.172C-1.228-.131-.678 0 0 0" style="fill:#4f4c4d;fill-opacity:1;fill-rule:nonzero;stroke:none" transform="matrix(.76288 0 0 -.76288 122.423 151.973)"/></g><g style="fill:#4f4c4d;fill-opacity:1"><path d="M0 0c.714 0 1.323.272 1.835.817.512.546.769 1.24.769 2.079 0 .825-.257 1.517-.769 2.076-.512.555-1.121.837-1.835.837-.701 0-1.306-.282-1.818-.837-.51-.559-.769-1.251-.769-2.076 0-.839.259-1.533.769-2.079C-1.306.272-.701 0 0 0m0-1.62c-1.262 0-2.34.432-3.23 1.301-.89.867-1.339 1.939-1.339 3.215 0 1.274.449 2.349 1.339 3.221.89.875 1.968 1.309 3.23 1.309 1.275 0 2.354-.434 3.239-1.309.885-.872 1.33-1.947 1.33-3.221 0-1.276-.445-2.348-1.33-3.215C2.354-1.188 1.275-1.62 0-1.62" style="fill:#4f4c4d;fill-opacity:1;fill-rule:nonzero;stroke:none" transform="matrix(.76288 0 0 -.76288 133.41 157.638)"/></g><g style="fill:#4f4c4d;fill-opacity:1"><path d="M0 0c0 .814.229 1.428.684 1.842.453.411 1.145.62 2.076.62h.949V.896h-.571c-.367 0-.652-.08-.853-.235-.201-.155-.303-.438-.303-.852v-1.534h1.727v-1.588H1.982v-7.047H0v7.047h-1.481v1.588H0Z" style="fill:#4f4c4d;fill-opacity:1;fill-rule:nonzero;stroke:none" transform="matrix(.76288 0 0 -.76288 138.52 150.813)"/></g><g style="fill:#4f4c4d;fill-opacity:1"><path d="m0 0 4.997 5.584h2.431L2.067-.381 7.411-6.43H4.912L0-.846V-6.43h-1.997V5.584H0Z" style="fill:#4f4c4d;fill-opacity:1;fill-rule:nonzero;stroke:none" transform="matrix(.76288 0 0 -.76288 148.076 153.811)"/></g><g style="fill:#4f4c4d;fill-opacity:1"><path d="M0 0c.713 0 1.323.272 1.836.817.512.546.768 1.24.768 2.079 0 .825-.256 1.517-.768 2.076-.513.555-1.123.837-1.836.837-.701 0-1.307-.282-1.818-.837-.511-.559-.768-1.251-.768-2.076 0-.839.257-1.533.768-2.079C-1.307.272-.701 0 0 0m0-1.62c-1.264 0-2.341.432-3.23 1.301-.89.867-1.338 1.939-1.338 3.215 0 1.274.448 2.349 1.338 3.221.889.875 1.966 1.309 3.23 1.309 1.275 0 2.355-.434 3.24-1.309.884-.872 1.328-1.947 1.328-3.221 0-1.276-.444-2.348-1.328-3.215C2.355-1.188 1.275-1.62 0-1.62" style="fill:#4f4c4d;fill-opacity:1;fill-rule:nonzero;stroke:none" transform="matrix(.76288 0 0 -.76288 157.067 157.638)"/></g><g style="fill:#4f4c4d;fill-opacity:1"><path d="M0 0v8.636h1.845V7.344c.287.421.636.75 1.051.981.495.3 1.075.446 1.739.446h.14V7.015h-.209c-.814 0-1.462-.247-1.947-.742-.446-.484-.671-1.236-.671-2.257V0Z" style="fill:#4f4c4d;fill-opacity:1;fill-rule:nonzero;stroke:none" transform="matrix(.76288 0 0 -.76288 161.837 158.716)"/></g><g style="fill:#4f4c4d;fill-opacity:1"><path d="M0 0h4.792c-.023.562-.258 1.075-.707 1.543-.446.463-1.017.698-1.705.698-.713 0-1.3-.254-1.759-.758C.288 1.102.08.608 0 0m.035-1.549a2.33 2.33 0 0 1 .741-1.296c.553-.505 1.28-.758 2.188-.758.954 0 1.846.351 2.674 1.053L6.223-4c-.932-.805-2.035-1.204-3.31-1.204-1.459 0-2.644.411-3.559 1.239-.913.83-1.371 1.912-1.371 3.258 0 1.321.406 2.411 1.215 3.268.81.855 1.869 1.281 3.182 1.281 1.287 0 2.341-.421 3.164-1.274.819-.849 1.229-1.9 1.229-3.155a4.87 4.87 0 0 0-.086-.962z" style="fill:#4f4c4d;fill-opacity:1;fill-rule:nonzero;stroke:none" transform="matrix(.76288 0 0 -.76288 167.488 154.904)"/></g><g style="fill:#4f4c4d;fill-opacity:1"><path d="M0 0c.506 0 1.005.122 1.5.37.49.247.85.531 1.068.855v1.463H.827c-.988 0-1.68-.127-2.066-.378-.381-.289-.572-.633-.572-1.037 0-.366.163-.671.484-.911C-1.006.12-.562 0 0 0m.533 4.223h2.035c0 .561-.218.984-.655 1.264-.435.284-1.067.424-1.897.424h-.05c-.783 0-1.609-.183-2.482-.55l-.5 1.534c.908.389 1.908.589 2.999.6h.033c1.45 0 2.56-.276 3.337-.835.774-.556 1.163-1.443 1.163-2.663v-5.342H2.655v.948a3.753 3.753 0 0 0-1.354-.854 4.65 4.65 0 0 0-1.628-.3c-1.034 0-1.869.272-2.51.82-.636.543-.957 1.214-.957 2.004 0 .888.398 1.615 1.192 2.189.733.508 1.779.761 3.135.761" style="fill:#4f4c4d;fill-opacity:1;fill-rule:nonzero;stroke:none" transform="matrix(.76288 0 0 -.76288 176.362 157.69)"/></g><g style="fill:#4f4c4d;fill-opacity:1"><path d="M0 0v-8.771h-3.66v5.539h-19.028V0Zm-13.125-18.633v4.287h-11.674v3.233H2.242v-3.233H-9.465v-4.287H.066v-10.256h-3.66v7.057h-19.358v3.199z" style="fill:#4f4c4d;fill-opacity:1;fill-rule:nonzero;stroke:none" transform="matrix(.76288 0 0 -.76288 38.454 117.022)"/></g><path d="M16.166 299.696h2.792v12.53h-2.792zm.05 17.409h-12.1v2.265h12.1Zm-14.843-4.126h2.742v1.862h12.102v-1.862h2.741v8.705H1.373Zm10.844-1.182H.114v-6.844h9.083v-2.239H.114v-2.365h11.85v6.87H2.883v2.263h9.334z" style="fill:#4f4c4d;fill-opacity:1;fill-rule:nonzero;stroke:none;stroke-width:.762889" transform="matrix(.99999 0 0 .99999 43.748 -183.123)"/><g style="fill:#4f4c4d;fill-opacity:1"><path d="M0 0c0 1.01-.379 1.885-1.138 2.621-.758.736-1.643 1.104-2.654 1.104-1.012 0-1.896-.368-2.654-1.104C-7.206 1.885-7.585 1.01-7.585 0c0-1.012.379-1.887 1.139-2.623.758-.736 1.642-1.104 2.654-1.104 1.011 0 1.896.368 2.654 1.104C-.379-1.887 0-1.012 0 0m7.815 20.445H-2.11l10.486-5.541-1.682-2.703-10.486 5.572-10.52-5.572-1.649 2.703 10.487 5.541H-15.4v3.1H7.815ZM-5.64 6.627v1.781h-11.673v3.133H9.729V8.408H-1.979V6.627a7.245 7.245 0 0 0 1.056-.33 7.706 7.706 0 0 0 2.341-1.483 7.197 7.197 0 0 0 1.583-2.16A6.055 6.055 0 0 0 3.595 0c0-.947-.198-1.832-.594-2.656a7.21 7.21 0 0 0-1.583-2.16A7.481 7.481 0 0 0-.923-6.283a7.611 7.611 0 0 0-2.869-.545 7.6 7.6 0 0 0-2.869.545 7.486 7.486 0 0 0-2.342 1.467 7.21 7.21 0 0 0-1.583 2.16A6.064 6.064 0 0 0-11.179 0c0 .943.198 1.83.593 2.654a7.197 7.197 0 0 0 1.583 2.16A7.711 7.711 0 0 0-5.64 6.627" style="fill:#4f4c4d;fill-opacity:1;fill-rule:nonzero;stroke:none" transform="matrix(.76288 0 0 -.76288 79.738 134.809)"/></g><g style="fill:#4f4c4d;fill-opacity:1"><path d="M0 0h-3.627v15.6H0V9.697h4.221V6.068H0Zm-4.881-7.354c0 1.143-.418 2.133-1.253 2.969-.836.834-1.836 1.252-3.001 1.252-1.166 0-2.16-.418-2.984-1.252-.824-.836-1.236-1.826-1.236-2.969 0-1.166.412-2.154 1.236-2.966.824-.815 1.818-1.221 2.984-1.221 1.165 0 2.165.406 3.001 1.221.835.812 1.253 1.8 1.253 2.966m3.562-.033a6.636 6.636 0 0 0-.626-2.851 7.851 7.851 0 0 0-1.65-2.326 8.425 8.425 0 0 0-2.489-1.616 7.66 7.66 0 0 0-3.018-.593 7.768 7.768 0 0 0-3.034.593 8.384 8.384 0 0 0-2.507 1.616 7.563 7.563 0 0 0-1.681 2.326 6.622 6.622 0 0 0-.627 2.851c0 1.012.209 1.969.627 2.869a7.098 7.098 0 0 0 1.681 2.309 8.33 8.33 0 0 0 2.507 1.617A7.786 7.786 0 0 0-9.102 0a7.678 7.678 0 0 0 3.018-.592 8.369 8.369 0 0 0 2.489-1.617 7.35 7.35 0 0 0 1.65-2.309c.417-.9.626-1.857.626-2.869m-10.52 15.27c0 1.209-.429 2.242-1.286 3.099-.857.858-1.891 1.286-3.1 1.286-1.232 0-2.265-.428-3.1-1.286-.835-.857-1.253-1.89-1.253-3.099 0-1.233.418-2.272 1.253-3.117.835-.846 1.868-1.27 3.1-1.27 1.209 0 2.243.424 3.1 1.27.857.845 1.286 1.884 1.286 3.117m3.528.033a6.752 6.752 0 0 0-.642-2.936 8.186 8.186 0 0 0-1.699-2.375A8.291 8.291 0 0 0-13.175.99a7.891 7.891 0 0 0-3.05-.594 7.888 7.888 0 0 0-3.05.594 8.308 8.308 0 0 0-2.524 1.615 7.856 7.856 0 0 0-1.73 2.375 6.725 6.725 0 0 0-.644 2.936c0 1.033.214 2.006.644 2.918a7.384 7.384 0 0 0 1.73 2.357 8.297 8.297 0 0 0 2.524 1.618 7.924 7.924 0 0 0 3.05.593 7.928 7.928 0 0 0 3.05-.593 8.28 8.28 0 0 0 2.523-1.618 7.674 7.674 0 0 0 1.699-2.357 6.785 6.785 0 0 0 .642-2.918" style="fill:#4f4c4d;fill-opacity:1;fill-rule:nonzero;stroke:none" transform="matrix(.76288 0 0 -.76288 108.217 128.47)"/></g><g style="fill:#4f4c4d;fill-opacity:1"><path d="M0 0h-3.627v16.521H0v-6.167h4.222V6.727H0Zm-11.971 8.672h-8.112V4.121h8.112zM-23.15-1.748H0v-10.883h-3.627v7.651H-23.15Zm-.561 17.643h3.628v-4.057h8.112v4.057h3.563V1.055h-15.303z" style="fill:#4f4c4d;fill-opacity:1;fill-rule:nonzero;stroke:none" transform="matrix(.76288 0 0 -.76288 131.714 129.173)"/></g><path d="M109.477 302.238H97.68v2.615h11.798zm-14.54-2.265h17.307v7.119H94.936Zm7.245 12.453v-1.56h-8.906v-2.29h20.63v2.29h-8.932v1.56h7.271v5.686H97.68v1.358h14.868v2.29h-17.61v-5.837h14.54v-1.282h-14.54v-2.215z" style="fill:#4f4c4d;fill-opacity:1;fill-rule:nonzero;stroke:none;stroke-width:.762889" transform="matrix(.99999 0 0 .99999 43.748 -183.123)"/><g style="fill:#4f4c4d;fill-opacity:1"><path d="M0 0h-3.66v19.326H0v-7.914h3.76V8.08H0Zm-22.92-9.596v8.838h3.661v-5.605H.527v-3.233zm11.774 17.313v7.816h-12.532v3.199h16.126V7.717Zm5.244-2.803V1.715h-19.095v3.199h5.97v6.563h3.627V4.914Z" style="fill:#4f4c4d;fill-opacity:1;fill-rule:nonzero;stroke:none" transform="matrix(.76288 0 0 -.76288 179.238 131.313)"/></g><path d="M0 0c0-30.467-24.697-55.165-55.17-55.165-30.463 0-55.164 24.698-55.164 55.165 0 30.476 24.701 55.174 55.164 55.174C-24.697 55.174 0 30.476 0 0" style="fill:#fff;fill-opacity:1;fill-rule:nonzero;stroke:none" transform="matrix(.76288 0 0 -.76288 142.8 58.606)"/><g style="fill:#14365f;fill-opacity:1"><path d="M0 0c-8.638 5.873-19.692 3.479-25.497-5.346-4.844-7.365-12.165-8.288-14.996-8.288-9.236 0-15.546 6.496-17.422 13.216h-.006c-.021.066-.035.124-.058.19-.014.078-.034.148-.053.228-.736 2.806-.919 4.146-.919 7.127 0 16.075 16.495 33.967 40.239 33.967 24.324 0 38.243-18.516 41.833-28.805-.063.181-.126.364-.183.55-6.9 20.121-25.988 34.596-48.466 34.596-28.275 0-51.21-22.923-51.21-51.215 0-25.287 18.239-46.932 43.531-46.932 20.179 0 33.735 11.316 39.952 26.903C10.157-15.281 7.748-5.26 0 0" style="fill:#14365f;fill-opacity:1;fill-rule:nonzero;stroke:none" transform="matrix(.76288 0 0 -.76288 120.186 55.722)"/></g><g style="fill:#ed1639;fill-opacity:1"><path d="M0 0c-2.982 10.041-17.006 29.805-42.143 29.805-23.744 0-40.239-17.894-40.239-33.969 0-2.979.184-4.319.918-7.123a15.169 15.169 0 0 0-.463 3.651c0 16.743 16.755 28.339 33.989 28.339 23.32 0 42.223-18.904 42.223-42.226 0-18.282-10.517-34.105-25.806-41.707v-.014c19.71 7.137 33.78 26.007 33.78 48.175C2.259-9.829 1.553-5.198 0 0" style="fill:#ed1639;fill-opacity:1;fill-rule:nonzero;stroke:none" transform="matrix(.76288 0 0 -.76288 138.061 47.11)"/></g></svg>